<svg width="19" height="20" viewBox="0 0 19 20" fill="none" xmlns="http://www.w3.org/2000/svg">
<path d="M9.10439 0.174679L15.7926 3.51879C16.0712 3.65722 16.3056 3.87061 16.4696 4.13498C16.6335 4.39935 16.7204 4.70421 16.7206 5.01528V12.9826C16.7204 13.2937 16.6335 13.5986 16.4696 13.8629C16.3056 14.1273 16.0712 14.3407 15.7926 14.4791L9.10439 17.8232C8.87209 17.9395 8.6159 18 8.35614 18C8.09638 18 7.8402 17.9395 7.6079 17.8232L0.919671 14.4791C0.641382 14.3389 0.407815 14.1237 0.245321 13.8578C0.0828269 13.5919 -0.00212813 13.2859 4.0504e-05 12.9743V5.01528C0.000205571 4.70421 0.0871446 4.39935 0.251083 4.13498C0.415021 3.87061 0.649457 3.65722 0.928032 3.51879L7.61626 0.174679C7.84747 0.0597881 8.10214 0 8.36032 0C8.6185 0 8.87318 0.0597881 9.10439 0.174679V0.174679Z" transform="translate(1 1)" stroke="#525580" stroke-width="2" stroke-linecap="round" stroke-linejoin="round"/>
<path d="M0 0L8.09275 4.04638L16.1855 0" transform="translate(1.26758 5.11255)" stroke="#525580" stroke-width="2" stroke-linecap="round" stroke-linejoin="round"/>
<path d="M0 9.83169V0" transform="translate(9.36035 9.15869)" stroke="#525580" stroke-width="2" stroke-linecap="round" stroke-linejoin="round"/>
<path d="M0 0L8.36028 4.18014" transform="translate(5.18018 2.88867)" stroke="#525580" stroke-width="2" stroke-linecap="round" stroke-linejoin="round"/>
</svg>
