<?xml version="1.0" encoding="utf-8"?>
<!-- Generator: Adobe Illustrator 17.1.0, SVG Export Plug-In . SVG Version: 6.00 Build 0)  -->
<!DOCTYPE svg PUBLIC "-//W3C//DTD SVG 1.1//EN" "http://www.w3.org/Graphics/SVG/1.1/DTD/svg11.dtd">
<svg version="1.1" id="Layer_1" xmlns="http://www.w3.org/2000/svg" xmlns:xlink="http://www.w3.org/1999/xlink" x="0px" y="0px"
	 viewBox="0 0 33 31" enable-background="new 0 0 33 31" xml:space="preserve">
<g>
	<path fill="none" stroke="#787CB2" stroke-width="2" stroke-linecap="round" stroke-miterlimit="10" d="M17.5,28.9
		c-0.5,0.3-1.4,0.3-2,0L5.4,23.1c-0.5-0.3-1-1.1-1-1.7V9.7c0-0.6,0.4-1.4,1-1.7l10.1-5.8c0.5-0.3,1.4-0.3,2,0L27.6,8
		c0.5,0.3,1,1.1,1,1.7v11.7c0,0.6-0.4,1.4-1,1.7L17.5,28.9z"/>
</g>
<g>
	<path fill="none" stroke="#787CB2" stroke-width="2" stroke-linecap="round" stroke-miterlimit="10" d="M28.1,8.9l-11.6,6
		c0,0,0,0,0,0l-11-5.7C5,8.9,5,8.9,5.6,9.2l9.9,5.2c0.6,0.3,1,0.5,1,0.5c0,0,0,0.5,0,1.1v12.9"/>
</g>
</svg>
