<svg version="1.1" id="Layer_1" xmlns="http://www.w3.org/2000/svg" xmlns:xlink="http://www.w3.org/1999/xlink" x="0px" y="0px"
	 viewBox="0 0 97 108" enable-background="new 0 0 97 108" xml:space="preserve">
<path d="M58.8,83.1v-3.3c0-5-4.1-9.1-9.1-9.1h-2.8c-5,0-9.1,4.1-9.1,9.1v3.3c-1.5,0.3-2.7,1.7-2.7,3.3v16.9
	c0,1.9,1.5,3.4,3.4,3.4h19.6c1.9,0,3.4-1.5,3.4-3.4V86.4C61.5,84.8,60.3,83.4,58.8,83.1z M46.8,74.4h2.8c3,0,5.4,2.4,5.4,5.4V83
	H41.4v-3.2C41.4,76.8,43.9,74.4,46.8,74.4z M57.3,102.6H39.2V87.2h18.1V102.6z"/>
<path d="M89.5,29.3L50,5.8c-0.7-0.4-1.7-0.4-2.4,0l-40,22.5c-0.7,0.4-1.2,1.2-1.2,2.1L5.8,76.3c0,0.9,0.4,1.6,1.2,2.1
	l25.1,15.1v-5.6L10.6,75l0.5-40.3l34.8,20.5v12.7h4.8V55.2l35.2-19.7l-0.3,40.7L63.9,88.4v5.5l25.2-14.2c0.8-0.4,1.2-1.2,1.2-2.1
	l0.3-46.3C90.7,30.5,90.2,29.7,89.5,29.3z M48.3,51.1L13.4,30.5l35.3-19.8l34.8,20.7L48.3,51.1z"/>
<path d="M32.4,65.7c0.4,0,0.8-0.1,1.2-0.3c1.2-0.7,1.6-2.1,0.9-3.3c-0.6-1.2-2.1-1.6-3.3-0.9c-1.2,0.6-1.6,2.1-0.9,3.3
	C30.8,65.3,31.6,65.7,32.4,65.7z M24.4,70.2c0.4,0,0.8-0.1,1.2-0.3c1.2-0.6,1.6-2.1,0.9-3.3c-0.6-1.2-2.1-1.6-3.3-0.9
	c-1.2,0.6-1.6,2.1-0.9,3.3C22.8,69.8,23.6,70.2,24.4,70.2z M40.4,61.2c0.4,0,0.8-0.1,1.2-0.3c1.2-0.6,1.6-2.1,0.9-3.3
	c-0.6-1.2-2.1-1.6-3.3-0.9c-1.2,0.6-1.6,2.1-0.9,3.3C38.8,60.8,39.6,61.2,40.4,61.2z M16.4,74.7c0.4,0,0.8-0.1,1.2-0.3
	c1.2-0.7,1.6-2.1,0.9-3.3c-0.7-1.2-2.1-1.6-3.3-0.9c-1.2,0.6-1.6,2.1-0.9,3.3C14.8,74.3,15.6,74.7,16.4,74.7z M70.9,70.4
	c0.4,0.2,0.8,0.3,1.2,0.3c0.8,0,1.6-0.4,2.1-1.2c0.7-1.1,0.3-2.6-0.8-3.3c-1.1-0.7-2.6-0.3-3.3,0.8C69.4,68.3,69.8,69.8,70.9,70.4z
	 M63,65.8c0.4,0.2,0.8,0.3,1.2,0.3c0.8,0,1.6-0.4,2.1-1.2c0.7-1.1,0.3-2.6-0.8-3.3c-1.1-0.7-2.6-0.3-3.3,0.8
	C61.5,63.6,61.9,65.1,63,65.8z M55.1,61.1c0.4,0.2,0.8,0.3,1.2,0.3c0.8,0,1.6-0.4,2.1-1.2c0.7-1.1,0.3-2.6-0.8-3.3
	c-1.1-0.7-2.6-0.3-3.3,0.8C53.6,58.9,54,60.4,55.1,61.1z M78.8,75.1c0.4,0.2,0.8,0.3,1.2,0.3c0.8,0,1.6-0.4,2.1-1.2
	c0.7-1.1,0.3-2.6-0.8-3.3c-1.1-0.7-2.6-0.3-3.3,0.8C77.3,73,77.7,74.5,78.8,75.1z M48.7,33.6c-1.3,0-2.4,1-2.4,2.4
	c0,1.3,1,2.4,2.4,2.4h0c1.3,0,2.4-1.1,2.4-2.4C51.1,34.7,50,33.6,48.7,33.6z M48.8,24.4c-1.3,0-2.4,1-2.4,2.4c0,1.3,1,2.4,2.4,2.4h0
	c1.3,0,2.4-1.1,2.4-2.4C51.2,25.5,50.1,24.4,48.8,24.4z M48.9,20L48.9,20c1.4,0,2.4-1.1,2.4-2.4c0-1.3-1-2.4-2.4-2.4
	c-1.3,0-2.4,1-2.4,2.4C46.5,18.9,47.6,19.9,48.9,20z M48.6,42.7c-1.3,0-2.4,1-2.4,2.4c0,1.3,1,2.4,2.4,2.4h0c1.3,0,2.4-1.1,2.4-2.4
	C51,43.8,49.9,42.8,48.6,42.7z"/>
</svg>
