<svg width="24" height="36" viewBox="0 0 24 36" fill="none" xmlns="http://www.w3.org/2000/svg">
    <path d="M23.979 28.1531L20.2533 11.025C20.2253 10.9406 20.1973 10.8563 20.1412 10.8L12.4377 0.225C12.3256 0.084375 12.1576 0 11.9895 0C11.8214 0 11.6533 0.084375 11.5413 0.225L3.83776 10.8C3.78173 10.8563 3.75372 10.9406 3.72571 11.025L0 28.125V28.3781C0 28.4062 0.0280124 28.4625 0.0280124 28.4906C0.0560252 28.575 0.140064 28.6594 0.224102 28.7156H0.252115L11.6814 35.9156C11.7654 35.9719 11.8774 36 11.9895 36C12.1015 36 12.1856 35.9719 12.2976 35.9156L23.7269 28.7156H23.7549C23.8389 28.6594 23.895 28.575 23.951 28.4906C23.979 28.4625 23.979 28.4062 23.979 28.3781C24.007 28.3219 24.007 28.2375 23.979 28.1531ZM22.1021 24.7219L18.1803 17.775L19.609 13.275L22.1021 24.7219ZM12.5498 2.27813L19.0767 11.25L17.424 16.4812L12.5498 7.81875V2.27813ZM11.9895 9.1125L16.9758 17.9156L13.8944 27.675H10.1126L7.03122 17.9156L11.9895 9.1125ZM11.4292 2.27813V7.81875L6.555 16.4531L4.90225 11.25L11.4292 2.27813ZM4.37 13.3031L5.79866 17.8031L1.87686 24.75L4.37 13.3031ZM6.27488 19.2656L8.93609 27.7031H1.51269L6.27488 19.2656ZM2.49314 28.8H9.30026L10.981 34.1437L2.49314 28.8ZM11.9895 33.6094L10.4768 28.8H13.5302L11.9895 33.6094ZM12.998 34.1437L14.6787 28.8H21.4858L12.998 34.1437ZM15.0429 27.675L17.7041 19.2375L22.4663 27.675H15.0429Z"
          transform="translate(0 0.000854492)" fill="url(#paint0_linear)"/>
    <defs>
        <linearGradient id="paint0_linear" x2="1" gradientUnits="userSpaceOnUse"
                        gradientTransform="translate(24.0145 35.9782) scale(24 36) rotate(179.931)">
            <stop stop-color="#715AFF"/>
            <stop offset="1" stop-color="#4DE2D9"/>
        </linearGradient>
    </defs>
</svg>
