<svg width="9" height="21" viewBox="0 0 9 21" fill="none" xmlns="http://www.w3.org/2000/svg">
<path d="M20.0864 3.23199C20.0746 3.2263 20.0627 3.22102 20.0506 3.2162L17.5595 2.21169C17.4162 2.15384 17.2543 2.15155 17.1091 2.20498L15.6143 2.75573L14.1193 2.20498C13.9801 2.15376 13.8255 2.15376 13.6863 2.20498L12.1913 2.75573L10.6964 2.20498C10.5574 2.15376 10.4026 2.15376 10.2636 2.20498L9.17787 2.60484C8.39897 1.02543 6.71486 0 4.81153 0C2.15849 0 0 2.01866 0 4.5C0 6.98134 2.15849 9 4.81153 9C6.79493 9 8.53355 7.89203 9.26647 6.20308H19.3188C20.2458 6.20308 21 5.49773 21 4.63076C21 4.0385 20.6499 3.50243 20.0864 3.23199ZM19.3189 5.09834H8.84972C8.58975 5.09834 8.36032 5.25735 8.28464 5.48992C7.8165 6.92863 6.4208 7.89526 4.81153 7.89526C2.80981 7.89526 1.1813 6.37211 1.1813 4.5C1.1813 2.62789 2.80981 1.10482 4.81153 1.10482C6.40915 1.10482 7.80199 2.06214 8.27755 3.48704C8.32649 3.63351 8.43829 3.75441 8.58629 3.8207C8.73438 3.88706 8.90524 3.89274 9.0578 3.83648L10.4799 3.31264L11.9748 3.86339C12.1138 3.9146 12.2686 3.9146 12.4077 3.86339L13.9027 3.31264L15.3978 3.86339C15.5369 3.9146 15.6916 3.91453 15.8307 3.86339L17.3154 3.31642L19.5613 4.22206C19.7205 4.30453 19.8188 4.45983 19.8188 4.63092C19.8187 4.88866 19.5945 5.09834 19.3189 5.09834Z" transform="translate(9) rotate(90)" fill="#7FF4CA"/>
<path d="M1.53881 0C0.690302 0 0 0.645608 0 1.43918C0 2.23276 0.690302 2.87836 1.53881 2.87836C2.38733 2.87836 3.07763 2.23276 3.07763 1.43918C3.07763 0.645608 2.38724 0 1.53881 0ZM1.53881 1.77355C1.34171 1.77355 1.1813 1.62353 1.1813 1.43918C1.1813 1.25484 1.34171 1.10482 1.53881 1.10482C1.73592 1.10482 1.89633 1.25484 1.89633 1.43918C1.89633 1.62353 1.73592 1.77355 1.53881 1.77355Z" transform="translate(5.93945 2.32471) rotate(90)" fill="#7FF4CA"/>
</svg>
