<svg width="70" height="71" viewBox="0 0 70 71" fill="none" xmlns="http://www.w3.org/2000/svg">
    <path d="M6.77635 0C3.03987 0 0 3.03987 0 6.77635C0 10.5128 3.03987 13.5527 6.77635 13.5527C10.5128 13.5527 13.5527 10.5128 13.5527 6.77635C13.5527 3.03987 10.5128 0 6.77635 0ZM6.77635 10.8422C4.53447 10.8422 2.71054 9.01824 2.71054 6.77635C2.71054 4.53447 4.53447 2.71054 6.77635 2.71054C9.01824 2.71054 10.8422 4.53447 10.8422 6.77635C10.8422 9.01824 9.01824 10.8422 6.77635 10.8422Z" transform="translate(0.595703 0.843262)" fill="url(#net_paint_0)"/>
    <path d="M6.77635 0C3.03987 0 0 3.03987 0 6.77635C0 10.5128 3.03987 13.5527 6.77635 13.5527C10.5128 13.5527 13.5527 10.5128 13.5527 6.77635C13.5527 3.03987 10.5128 0 6.77635 0ZM6.77635 10.8422C4.53447 10.8422 2.71054 9.01824 2.71054 6.77635C2.71054 4.53447 4.53447 2.71054 6.77635 2.71054C9.01824 2.71054 10.8422 4.53447 10.8422 6.77635C10.8422 9.01824 9.01824 10.8422 6.77635 10.8422Z" transform="translate(56.4326 0.843262)" fill="url(#net_paint_1)"/>
    <path d="M6.77635 0C3.03987 0 0 3.03987 0 6.77635C0 10.5128 3.03987 13.5527 6.77635 13.5527C10.5128 13.5527 13.5527 10.5128 13.5527 6.77635C13.5527 3.03987 10.5128 0 6.77635 0ZM6.77635 10.8422C4.53447 10.8422 2.71054 9.01824 2.71054 6.77635C2.71054 4.53447 4.53447 2.71054 6.77635 2.71054C9.01824 2.71054 10.8422 4.53447 10.8422 6.77635C10.8422 9.01824 9.01824 10.8422 6.77635 10.8422Z" transform="translate(56.4326 56.6805)" fill="url(#net_paint_2)"/>
    <path d="M41.3546 33.349C41.2443 32.8687 40.8818 32.4861 40.4079 32.35C39.9344 32.2139 39.424 32.3459 39.0754 32.6942L38.7599 33.0099L35.9643 30.2142C35.4349 29.6851 34.577 29.6851 34.0475 30.2142C33.5183 30.7435 33.5183 31.6016 34.0475 32.131L37.8015 35.8848C38.1873 36.2705 38.7479 36.3749 39.2283 36.1984L40.1326 40.1325L36.1985 39.2283C36.3752 38.7477 36.2706 38.1871 35.8849 37.8014L29.0634 30.9798C31.8097 28.793 33.5735 25.4223 33.5735 21.6469C33.5735 19.8419 33.1697 18.13 32.449 16.595L38.7601 10.2839L39.0756 10.5995C39.4242 10.948 39.9343 11.0801 40.4081 10.9438C40.8819 10.8077 41.2443 10.4251 41.3547 9.9448L43.2593 1.65907C43.3638 1.20411 43.2269 0.727326 42.8968 0.397047C42.5665 0.0669026 42.0897 -0.0697091 41.6347 0.0345112L33.349 1.93907C32.8687 2.04939 32.4861 2.41193 32.3501 2.88573C32.214 3.3594 32.3458 3.86966 32.6943 4.21823L33.0099 4.53374L30.236 7.30771C29.7067 7.83694 29.7067 8.6951 30.236 9.22447C30.7653 9.75357 31.6232 9.75357 32.1527 9.22447L35.8849 5.49219C36.2707 5.10634 36.3752 4.54594 36.1985 4.06536L40.1326 3.16112L39.2283 7.0952C38.7475 6.9182 38.1873 7.0231 37.8015 7.40881L30.9799 14.2303C28.793 11.484 25.4223 9.72023 21.6469 9.72023C19.8421 9.72023 18.13 10.124 16.595 10.8447L10.2839 4.53361L10.5996 4.2181C10.948 3.86952 11.0799 3.35926 10.9438 2.88559C10.8077 2.41179 10.4252 2.04939 9.94485 1.93894L1.65913 0.0343758C1.20457 -0.0699801 0.727381 0.0667671 0.397101 0.396911C0.0669572 0.727191 -0.0699256 1.20384 0.0345658 1.65894L1.93913 9.94466C2.04945 10.425 2.41198 10.8076 2.88578 10.9436C3.35959 11.0798 3.86971 10.9478 4.21829 10.5994L4.53379 10.2837L7.28079 13.0307C7.81016 13.5598 8.66805 13.5598 9.19755 13.0307C9.72679 12.5015 9.72679 11.6434 9.19755 11.114L5.49224 7.40881C5.10612 7.02297 4.54572 6.91848 4.06541 7.0952L3.16118 3.16112L7.09526 4.06536C6.91853 4.54594 7.02316 5.10648 7.40887 5.49219L14.2304 12.3138C11.484 14.5007 9.72028 17.8714 9.72028 21.6467C9.72028 23.4517 10.124 25.1637 10.8447 26.6987L4.53366 33.0097L4.21815 32.6941C3.86958 32.3457 3.35932 32.2137 2.88565 32.3499C2.41185 32.4859 2.04931 32.8685 1.93899 33.3488L0.0344303 41.6346C-0.0700611 42.0895 0.0668217 42.5663 0.396966 42.8966C0.653925 43.1535 0.999926 43.2935 1.35528 43.2935C1.45638 43.2935 1.55816 43.2823 1.65886 43.2591L9.94458 41.3545C10.4249 41.2442 10.8075 40.8817 10.9435 40.4079C11.0796 39.9342 10.9477 39.424 10.5993 39.0754L10.2837 38.7599L13.059 35.9846C13.5882 35.4553 13.5882 34.5972 13.059 34.0678C12.5296 33.5387 11.6717 33.5387 11.1422 34.0678L7.40873 37.8014C7.02288 38.1873 6.91839 38.7477 7.09512 39.2283L3.16104 40.1325L4.06528 36.1984C4.54599 36.3756 5.10626 36.2705 5.49211 35.8848L12.3137 29.0633C14.5006 31.8096 17.8713 33.5734 21.6467 33.5734C23.4515 33.5734 25.1636 33.1697 26.6986 32.4489L33.0097 38.76L32.694 39.0755C32.3456 39.4241 32.2137 39.9344 32.3498 40.408C32.4858 40.8818 32.8684 41.2442 33.3488 41.3547L41.6345 43.2593C41.7352 43.2824 41.8369 43.2937 41.938 43.2937C42.2934 43.2937 42.6394 43.1538 42.8964 42.8967C43.2266 42.5664 43.3637 42.0898 43.2592 41.6347L41.3546 33.349ZM21.6469 30.8629C16.5653 30.8629 12.4311 26.7286 12.4311 21.647C12.4311 16.5654 16.5653 12.4312 21.6469 12.4312C26.7285 12.4312 30.8628 16.5654 30.8628 21.647C30.8628 26.7286 26.7285 30.8629 21.6469 30.8629Z" transform="translate(13.6611 13.9084)" fill="url(#net_paint_3)"/>
    <path d="M6.77635 0C3.03987 0 0 3.03987 0 6.77635C0 10.5128 3.03987 13.5527 6.77635 13.5527C10.5128 13.5527 13.5527 10.5128 13.5527 6.77635C13.5527 3.03987 10.5128 0 6.77635 0ZM6.77635 10.8422C4.53447 10.8422 2.71054 9.01824 2.71054 6.77635C2.71054 4.53447 4.53447 2.71054 6.77635 2.71054C9.01824 2.71054 10.8422 4.53447 10.8422 6.77635C10.8422 9.01824 9.01824 10.8422 6.77635 10.8422Z" transform="translate(0.595703 56.6805)" fill="url(#net_paint_4)"/>
    <path d="M1.35527 0C0.606892 0 0 0.60689 0 1.35527C0 2.10365 0.606892 2.71054 1.35527 2.71054C3.52235 2.71054 5.28556 4.47375 5.28556 6.64083C5.28556 7.38921 5.89245 7.9961 6.64083 7.9961C7.38921 7.9961 7.9961 7.38921 7.9961 6.64083C7.9961 2.97902 5.01708 0 1.35527 0Z" transform="translate(33.9521 28.9146)" fill="url(#net_paint_5)"/>
    <path d="M1.35541 0C0.606889 0 0.000134419 0.613395 0.000134419 1.36191L0 1.38847C0 2.13685 0.60689 2.73724 1.35527 2.73724C2.10379 2.73724 2.71054 2.12398 2.71054 1.37533L2.71068 1.34863C2.71068 0.600248 2.10379 0 1.35541 0Z" transform="translate(29.9824 30.6432)" fill="url(#net_paint_6)"/>
    <defs>
        <linearGradient id="net_paint_0" x2="1" gradientUnits="userSpaceOnUse" gradientTransform="translate(5.12379 16.1603) scale(13.8733) rotate(-122.434)">
            <stop stop-color="#843CF7"/>
            <stop offset="1" stop-color="#38B8F2"/>
        </linearGradient>
        <linearGradient id="net_paint_1" x2="1" gradientUnits="userSpaceOnUse" gradientTransform="translate(5.12379 16.1603) scale(13.8733) rotate(-122.434)">
            <stop stop-color="#843CF7"/>
            <stop offset="1" stop-color="#38B8F2"/>
        </linearGradient>
        <linearGradient id="net_paint_2" x2="1" gradientUnits="userSpaceOnUse" gradientTransform="translate(5.12379 16.1603) scale(13.8733) rotate(-122.434)">
            <stop stop-color="#843CF7"/>
            <stop offset="1" stop-color="#38B8F2"/>
        </linearGradient>
        <linearGradient id="net_paint_3" x2="1" gradientUnits="userSpaceOnUse" gradientTransform="translate(16.3678 51.6235) scale(44.3178) rotate(-122.434)">
            <stop stop-color="#843CF7"/>
            <stop offset="1" stop-color="#38B8F2"/>
        </linearGradient>
        <linearGradient id="net_paint_4" x2="1" gradientUnits="userSpaceOnUse" gradientTransform="translate(5.12379 16.1603) scale(13.8733) rotate(-122.434)">
            <stop stop-color="#843CF7"/>
            <stop offset="1" stop-color="#38B8F2"/>
        </linearGradient>
        <linearGradient id="net_paint_5" x2="1" gradientUnits="userSpaceOnUse" gradientTransform="translate(3.02304 9.53456) scale(8.18524) rotate(-122.434)">
            <stop stop-color="#843CF7"/>
            <stop offset="1" stop-color="#38B8F2"/>
        </linearGradient>
        <linearGradient id="net_paint_6" x2="1" gradientUnits="userSpaceOnUse" gradientTransform="translate(1.02481 3.26389) scale(2.77479 2.80199) rotate(-122.434)">s
            <stop stop-color="#843CF7"/>
            <stop offset="1" stop-color="#38B8F2"/>
        </linearGradient>
    </defs>
</svg>
