<svg viewBox="0 0 500 500" fill="none" xmlns="http://www.w3.org/2000/svg">
<g clip-path="url(#clip0)">
<path d="M205.693 192.883V175.865C205.693 166.505 202.29 157.996 195.482 152.039C189.526 145.232 181.017 141.828 171.656 141.828H103.583C94.2227 141.828 85.7135 145.232 79.7571 152.039C72.9497 157.996 69.546 166.505 69.546 175.865V192.883" stroke="#525580" stroke-width="17.0184" stroke-linecap="round" stroke-linejoin="round"/>
<path d="M137.62 107.791C156.34 107.791 171.656 92.4748 171.656 73.7546C171.656 55.0344 156.34 39.7178 137.62 39.7178C118.899 39.7178 103.583 55.0344 103.583 73.7546C103.583 92.4748 118.899 107.791 137.62 107.791Z" stroke="#525580" stroke-width="17.0184" stroke-linecap="round" stroke-linejoin="round"/>
<path d="M323.656 192.883V175.865C323.656 166.505 320.253 157.996 313.445 152.039C307.489 145.232 298.98 141.828 289.62 141.828H221.546" stroke="#525580" stroke-width="17.0184" stroke-linecap="round" stroke-linejoin="round"/>
<path d="M255.583 107.791C274.303 107.791 289.62 92.4748 289.62 73.7546C289.62 55.0344 274.303 39.7178 255.583 39.7178C236.863 39.7178 221.546 55.0344 221.546 73.7546C221.546 92.4748 236.863 107.791 255.583 107.791Z" stroke="#525580" stroke-width="17.0184" stroke-linecap="round" stroke-linejoin="round"/>
<path d="M441.62 192.883V175.865C441.62 166.505 438.216 157.996 431.409 152.039C425.452 145.232 416.943 141.828 407.583 141.828H339.509" stroke="#525580" stroke-width="17.0184" stroke-linecap="round" stroke-linejoin="round"/>
<path d="M373.546 107.791C392.266 107.791 407.583 92.4748 407.583 73.7546C407.583 55.0344 392.266 39.7178 373.546 39.7178C354.826 39.7178 339.509 55.0344 339.509 73.7546C339.509 92.4748 354.826 107.791 373.546 107.791Z" stroke="#525580" stroke-width="17.0184" stroke-linecap="round" stroke-linejoin="round"/>
<path d="M105.337 313.276L85.2489 292.998L20.4778 361.301L129.582 464.732L192.993 399.534L177.14 382.749M105.337 313.276C143.492 267.653 162.62 248.915 231.243 265.345C240.553 267.575 250.068 268.982 259.642 268.982L337.067 268.982C370.171 268.982 375.3 324 337.067 324L271.791 324M105.337 313.276L177.14 382.749M363.426 292.761L425.656 231.681C451.766 205.571 497.926 236.81 468.085 271.313L395.349 354.773C382.154 369.485 367.374 375.288 342.196 375.288L225.165 375.288C199.474 377.531 199.987 376.687 177.14 382.749" stroke="#525580" stroke-width="17.0184" stroke-linecap="round" stroke-linejoin="round"/>
</g>
<defs>
<clipPath id="clip0">
<rect width="500" height="500" fill="white"/>
</clipPath>
</defs>
</svg>
