<svg width="71" height="33" viewBox="0 0 71 33" fill="none" xmlns="http://www.w3.org/2000/svg">
    <path d="M66.6795 14.908C68.1765 14.908 69.39 13.6945 69.39 12.1975V2.71055C69.39 1.21351 68.1765 0 66.6795 0H2.71055C1.21351 0 0 1.21351 0 2.71055V12.1975C0 13.6945 1.21351 14.908 2.71055 14.908C3.45784 14.908 4.06582 15.516 4.06582 16.2633C4.06582 17.0106 3.45784 17.6186 2.71055 17.6186C1.21351 17.6186 0 18.8321 0 20.3291V29.816C0 31.313 1.21351 32.5266 2.71055 32.5266H66.6795C68.1765 32.5266 69.39 31.313 69.39 29.816V20.3291C69.39 18.8321 68.1765 17.6186 66.6795 17.6186C65.9322 17.6186 65.3242 17.0106 65.3242 16.2633C65.3242 15.516 65.9322 14.908 66.6795 14.908ZM63.9689 10.0527C61.5775 11.1002 59.9031 13.4898 59.9031 16.2633C59.9031 19.0367 61.5775 21.4262 63.9689 22.4738V27.1055H5.42109V22.4738C7.81247 21.4263 9.48691 19.0367 9.48691 16.2633C9.48691 13.4898 7.81247 11.1004 5.42109 10.0527V5.42109H63.9689V10.0527ZM31.9845 20.3291V12.1975C31.9845 10.7004 33.198 9.48691 34.695 9.48691C36.192 9.48691 37.4055 10.7004 37.4055 12.1975V20.3291C37.4055 21.8261 36.192 23.0396 34.695 23.0396C33.198 23.0396 31.9845 21.8261 31.9845 20.3291ZM18.4317 20.3291V12.1975C18.4317 10.7004 19.6452 9.48691 21.1423 9.48691C22.6393 9.48691 23.8528 10.7004 23.8528 12.1975V20.3291C23.8528 21.8261 22.6393 23.0396 21.1423 23.0396C19.6452 23.0396 18.4317 21.8261 18.4317 20.3291ZM45.5372 20.3291V12.1975C45.5372 10.7004 46.7507 9.48691 48.2477 9.48691C49.7448 9.48691 50.9583 10.7004 50.9583 12.1975V20.3291C50.9583 21.8261 49.7448 23.0396 48.2477 23.0396C46.7507 23.0396 45.5372 21.8261 45.5372 20.3291Z" transform="translate(0.986328 0.236084)" fill="url(#ram_paint_0)"/>
    <defs>
        <linearGradient id="ram_paint_0" x2="1" gradientUnits="userSpaceOnUse" gradientTransform="translate(26.2338 38.7847) scale(71.0314 33.2959) rotate(-122.434)">
            <stop stop-color="#843CF7"/>
            <stop offset="1" stop-color="#38B8F2"/>
        </linearGradient>
    </defs>
</svg>