<?xml version="1.0" encoding="utf-8"?>
<!-- Generator: Adobe Illustrator 18.0.0, SVG Export Plug-In . SVG Version: 6.00 Build 0)  -->
<!DOCTYPE svg PUBLIC "-//W3C//DTD SVG 1.1//EN" "http://www.w3.org/Graphics/SVG/1.1/DTD/svg11.dtd">
<svg version="1.1" id="Слой_1" xmlns="http://www.w3.org/2000/svg" xmlns:xlink="http://www.w3.org/1999/xlink" x="0px" y="0px"
	 viewBox="0 0 172.7 318.1" enable-background="new 0 0 172.7 318.1" xml:space="preserve">
<desc>Scatter Logo</desc>
<g id="Page-1">
	<g id="gs_home_02a" transform="translate(-619.000000, -221.000000)">
		<g id="Group-15" transform="translate(625.000000, 221.000000)">
			<path id="Scatter" fill="#62D0FD" d="M68.1,318.1c-9,0-16.5-1-22.4-3c-6-2-10.7-4.3-14.1-6.8c-3.5-2.5-5.9-4.9-7.3-7.2
				c-1.4-2.3-2.1-3.8-2.1-4.5c0-2.5,0.6-5.2,1.7-8c1.1-2.8,2.5-5.5,4.2-7.9c1.7-2.4,3.5-4.5,5.4-6.1c1.9-1.7,3.7-2.5,5.2-2.5
				c1.9,0,3.5,1.3,4.8,3.8l2.1,2.1c1.1,1.1,2.7,2.3,4.7,3.4c2,1.2,4.5,2.3,7.5,3.2c3,1,6.5,1.5,10.5,1.5c8.7,0,15.8-2.7,21.4-8
				c5.5-5.4,8.3-12.6,8.3-21.8c0-6.4-1.5-12.1-4.5-17.1c-3-5-6.9-9.7-11.7-14c-4.8-4.3-10.4-8.5-16.6-12.6
				c-6.2-4.1-12.6-8.4-19.1-12.8c-6.5-4.4-12.9-9.2-19.1-14.4c-6.2-5.1-11.8-11-16.6-17.7c-4.8-6.7-8.8-14.2-11.7-22.6
				c-3-8.4-4.5-18-4.5-28.9c0-9.3,1.6-18.7,4.8-28.1C2,78.5,6.4,69.5,12,61c5.6-8.5,12.2-16.5,19.8-24s15.8-13.9,24.7-19.4
				c8.9-5.5,18.1-9.8,27.7-12.9s19.3-4.7,29-4.7c8.3,0,15.8,1.3,22.4,4c6.6,2.6,12.2,6.4,16.8,11.2c4.6,4.8,8.1,10.6,10.6,17.3
				c2.5,6.7,3.7,14.3,3.7,22.6c0,7.9-1.4,15.7-4.2,23.3s-6.4,14.9-11,21.7c-4.6,6.8-9.7,13.1-15.5,18.9c-5.7,5.8-11.6,10.8-17.6,15
				c-6,4.2-11.9,7.5-17.5,9.9c-5.7,2.4-10.7,3.5-14.9,3.5c-3.7,0-7.1-0.9-10.1-2.6c-3-1.7-5.5-3.9-7.5-6.5c-2-2.6-3.6-5.3-4.7-8.1
				c-1.1-2.8-1.7-5.4-1.7-7.6c0-1.8,0.2-3,0.7-3.5c0.5-0.6,1.2-0.8,2.1-0.7c0.9,0.1,2,0.3,3.4,0.6c1.4,0.3,3,0.5,4.8,0.5
				c5.8,0,12.2-2,19.3-6c7.1-4,13.7-9.2,19.9-15.4c6.2-6.3,11.5-13.1,15.7-20.6c4.2-7.5,6.3-14.8,6.3-21.9c0-7.2-1.8-12.9-5.3-17.1
				c-3.5-4.2-9.5-6.3-18-6.3c-5.3,0-11,1-17.1,3c-6.2,2-12.4,4.8-18.6,8.4c-6.2,3.6-12.2,8-18.1,13.1c-5.8,5.1-10.9,10.8-15.4,17
				c-4.4,6.2-8,12.9-10.7,20c-2.7,7.2-4,14.6-4,22.4c0,8.2,1.5,15.5,4.5,22c3,6.5,6.9,12.3,11.8,17.6c4.9,5.3,10.5,10.1,16.7,14.6
				c6.2,4.4,12.6,8.9,19.1,13.2c6.5,4.4,12.9,8.9,19.1,13.6s11.8,9.8,16.7,15.4c4.9,5.6,8.9,11.9,11.8,18.8c3,6.9,4.5,14.8,4.5,23.7
				c0,8.6-1.6,16.8-4.9,24.5c-3.3,7.7-7.7,14.4-13.4,20.1c-5.7,5.7-12.4,10.2-20.1,13.6C85.3,316.5,77,318.1,68.1,318.1z"/>
		</g>
	</g>
</g>
</svg>
