<?xml version="1.0" encoding="utf-8"?>
<!-- Generator: Adobe Illustrator 17.1.0, SVG Export Plug-In . SVG Version: 6.00 Build 0)  -->
<!DOCTYPE svg PUBLIC "-//W3C//DTD SVG 1.1//EN" "http://www.w3.org/Graphics/SVG/1.1/DTD/svg11.dtd">
<svg version="1.1" id="Layer_1" xmlns="http://www.w3.org/2000/svg" xmlns:xlink="http://www.w3.org/1999/xlink" x="0px" y="0px"
	 viewBox="52.4 80.8 283.5 283.5" enable-background="new 52.4 80.8 283.5 283.5" xml:space="preserve">
<path fill="none" d="M279.9,308.9c-16.8,16.3-41.3,26.5-60.7,28.1c-13.8,1.5-28.1,1.5-41.8,0c-20.4-2.6-35.2-8.2-50-13.8
	c7.1-7.1,14.8-16.8,17.9-25.5c2-5.1,1.5-10.7-0.5-15.3c-15.8-32.2-8.7-70.4,16.8-95.4c18.4-18.4,43.9-26.5,69.9-23.5
	c18.9,2.6,36.2,10.7,50,24C314.1,220.6,313.1,276.2,279.9,308.9z M299.8,166.5c-11.7-11.7-25.5-20.4-40.3-26
	c8.7-25,39.3-34.2,39.3-34.2s-70.4-36.7-148-21.9c-26,4.1-51,19.9-68.9,40.8c-39.3,45.4-34.2,114.3,11.7,153.1
	c7.1,6.1,23,15.3,23,15.8c-10.2,26.5-43.4,33.7-43.4,33.7s43.9,27.6,102.6,34.7c15.8,2,32.2,2.6,49,0.5c27-2,54.1-16.8,75-36.7
	C343.7,282.3,344.2,210.9,299.8,166.5z"/>
</svg>
